<?xml version="1.0"?>
<svg xmlns="http://www.w3.org/2000/svg" xmlns:xlink="http://www.w3.org/1999/xlink" viewBox="0 0 512 512" width="512" height="512"><defs><linearGradient id="linear-gradient" x1="83.757" y1="463.072" x2="457.265" y2="89.564" gradientUnits="userSpaceOnUse"><stop offset="0" stop-color="#41dfd0"/><stop offset="1" stop-color="#ee83ef"/></linearGradient></defs><g id="gradient"><path d="M296,168h96a8,8,0,0,0,8-8V72a8,8,0,0,0-8-8H296a8,8,0,0,0-8,8v88A8,8,0,0,0,296,168Zm56-88V96H336V80Zm-48,0h16v24a8,8,0,0,0,8,8h32a8,8,0,0,0,8-8V80h16v72H304Zm64,56a8,8,0,0,1-8,8H328a8,8,0,0,1,0-16h32A8,8,0,0,1,368,136ZM478.515,304.062l-8.793-5.863A61.769,61.769,0,0,0,419.155,272H272.247L173.51,178.2A8,8,0,0,0,168,176H120a8,8,0,0,0-6.279,12.957L179.281,272h-31.6l-45.606-53.206A8,8,0,0,0,96,216H32a8,8,0,0,0-6.826,12.172l88,144A8,8,0,0,0,120,376h78.228L113.721,483.043A8,8,0,0,0,120,496h48a8,8,0,0,0,5.51-2.2l124-117.8H456.733a39.267,39.267,0,0,0,21.782-71.938ZM136.509,192h28.3l84.211,80H199.666Zm28.3,288h-28.3L243.877,344h64.087ZM456.733,360H314.352l19.158-18.2A8,8,0,0,0,328,328H240a8,8,0,0,0-6.279,3.043L210.86,360H124.486L46.265,232H92.32l45.606,53.206A8,8,0,0,0,144,288H419.155a45.812,45.812,0,0,1,25.885,8H424a8,8,0,0,0,0,16h37.578l8.062,5.374A23.267,23.267,0,0,1,456.733,360ZM400,304a8,8,0,0,1-8,8H376a8,8,0,0,1,0-16h16A8,8,0,0,1,400,304Zm-48,0a8,8,0,0,1-8,8H328a8,8,0,0,1,0-16h16A8,8,0,0,1,352,304Zm-48,0a8,8,0,0,1-8,8H280a8,8,0,0,1,0-16h16A8,8,0,0,1,304,304Zm-48,0a8,8,0,0,1-8,8H232a8,8,0,0,1,0-16h16A8,8,0,0,1,256,304Zm-48,0a8,8,0,0,1-8,8H184a8,8,0,0,1,0-16h16A8,8,0,0,1,208,304Zm130.1-50.594a8,8,0,0,0,11.794,0l60.971-66.514A110.568,110.568,0,0,0,440,112a96,96,0,0,0-192,0,110.572,110.572,0,0,0,29.132,74.893Zm5.9-17.245-30.313-33.069a96.061,96.061,0,0,0,60.625,0ZM344,32a80,80,0,1,1-80,80A80.091,80.091,0,0,1,344,32Z" style="fill:url(#linear-gradient)"/></g></svg>
